<svg xmlns="http://www.w3.org/2000/svg" width="200.426" height="200.426" viewBox="0 0 200.426 200.426">
  <g id="グループ_59" data-name="グループ 59" transform="translate(7.853 -207.433) rotate(20)">
    <g id="グループ_57" data-name="グループ 57" transform="translate(146.157 195.428)">
      <path id="パス_9" data-name="パス 9" d="M281.294,325.562c0,19.918-16.147,12.822-36.066,12.822s-36.066,7.1-36.066-12.822c0-7.045,12.32-12.911,15.812-17.552,6.382-8.481,7.379-12.868,20.253-12.868,12.449,0,13.124,4.1,19.605,12.042C268.723,311.948,281.294,318.093,281.294,325.562Z" transform="translate(-199.374 -260.78)" fill="#df1f1c"/>
      <path id="パス_10" data-name="パス 10" d="M259.3,221.431c.292,6.064-4.14,16.36-10.2,16.652s-11.464-9.531-11.756-15.6a10.992,10.992,0,0,1,21.959-1.057Z" transform="translate(-216.058 -210.918)" fill="#df1f1c"/>
      <path id="パス_11" data-name="パス 11" d="M206.494,268.649c2.045,5.716.8,16.857-4.912,18.9s-13.742-5.78-15.787-11.5a10.992,10.992,0,1,1,20.7-7.405Z" transform="translate(-185.149 -240.767)" fill="#df1f1c"/>
      <path id="パス_12" data-name="パス 12" d="M326.458,223.692c-1.022,5.984-7.57,15.083-13.554,14.061s-9.139-11.779-8.117-17.763a10.992,10.992,0,0,1,21.671,3.7Z" transform="translate(-255.906 -210.847)" fill="#df1f1c"/>
      <path id="パス_13" data-name="パス 13" d="M377.124,276.054c-2.045,5.716-10.071,13.541-15.787,11.5s-6.957-13.185-4.912-18.9a10.992,10.992,0,1,1,20.7,7.405Z" transform="translate(-286.061 -240.767)" fill="#df1f1c"/>
    </g>
    <g id="グループ_58" data-name="グループ 58" transform="translate(154.965 276.453)">
      <path id="パス_14" data-name="パス 14" d="M217.687,420.065a1.162,1.162,0,0,1-.115-.766,1.836,1.836,0,0,1,.269-.766,5.591,5.591,0,0,0,.689-.038c.23-.051.434-.1.612-.153a8.719,8.719,0,0,1,4.366.345,8.507,8.507,0,0,1,3.638,2.3,5.275,5.275,0,0,1,.307.536,1.57,1.57,0,0,1,.191.613q1.723-.345,3.408-.536,1.685-.23,3.447-.383a3.357,3.357,0,0,0,.766-.153,2.293,2.293,0,0,0,.651-.345l.536-.5a1.147,1.147,0,0,1,.728-.345,1.128,1.128,0,0,1,.8.153,10.97,10.97,0,0,1,3.408,3.523,11.081,11.081,0,0,1,1.57,4.6,9.3,9.3,0,0,1,0,1.187,4.9,4.9,0,0,1-.153,1.187,1.118,1.118,0,0,1-.575.766,1.055,1.055,0,0,1-.919.115l-.574-.23a.993.993,0,0,0-.536-.076,1.18,1.18,0,0,0-.459.191l-2.642,1.34a2.96,2.96,0,0,1-.115,1.034,3.238,3.238,0,0,1-.46.881q1.3.958,2.451,1.991a17.538,17.538,0,0,1,2.145,2.412,2.809,2.809,0,0,1,.421,1.226,2.248,2.248,0,0,1-.115,1.225,2.518,2.518,0,0,1-.268.8q-.23.345-.5.728a1.083,1.083,0,0,1-.651.421,1.806,1.806,0,0,1-.8-.115,6.252,6.252,0,0,0-.766-.459,8.017,8.017,0,0,0-.8-.421,14.871,14.871,0,0,0,1.379,3.868,13.423,13.423,0,0,0,2.451,3.255q.382.46.728.881a9.691,9.691,0,0,1,.651,1,1.245,1.245,0,0,1,.153,1.034,1.392,1.392,0,0,1-.651.919A15.315,15.315,0,0,1,235,456.14a15.074,15.074,0,0,1-7.851-1.111,15.282,15.282,0,0,1-2.8-1.876,13.866,13.866,0,0,1-2.182-2.527,8.5,8.5,0,0,1-.881-3.791,8.663,8.663,0,0,1,.881-3.791q-.844.268-1.609.536a14.73,14.73,0,0,0-1.57.574l.612.919a1.156,1.156,0,0,1,.268.842,1.233,1.233,0,0,1-.344.843q-1.532,2.146-3.1,4.289-1.571,2.183-3.178,4.251a2.963,2.963,0,0,1-.8.689,2.5,2.5,0,0,1-.958.421,2.741,2.741,0,0,1-1.417-.153,2.677,2.677,0,0,1-1.149-.881q-.919-.767-1.877-1.455-1.034-.652-2.106-1.264a2.287,2.287,0,0,1,.575-1.494,2.066,2.066,0,0,1,1.379-.842,27.154,27.154,0,0,0,2.6-2.222,17.135,17.135,0,0,0,2.221-2.642,3.558,3.558,0,0,1-2.068,0,3.91,3.91,0,0,1-1.838-.919,4.118,4.118,0,0,1-.919-1.264,3.786,3.786,0,0,1-.345-1.57,2.767,2.767,0,0,0,1,.115,3.262,3.262,0,0,0,.958-.153,95.008,95.008,0,0,1,10.723-3.409q5.476-1.378,11.029-2.221a6.6,6.6,0,0,0,1.915-.5,5,5,0,0,0,1.57-1.11,35.79,35.79,0,0,0-9.038.613,37.666,37.666,0,0,0-8.77,2.757,2.594,2.594,0,0,1-1.072.307,3.417,3.417,0,0,1-1.149-.039,5.617,5.617,0,0,1-1-.306q-.422-.191-.843-.421l-.421.344-1.264.613a1.71,1.71,0,0,1-1,.153,1.411,1.411,0,0,1-.843-.383,9.673,9.673,0,0,1-3.178-4.634,11.524,11.524,0,0,1-.268-5.668,15.2,15.2,0,0,1,1.111-2.834,15.575,15.575,0,0,1,1.762-2.489,4.894,4.894,0,0,1,1.455-1.187,6.728,6.728,0,0,1,1.8-.575,15.9,15.9,0,0,1,6.2.23Zm-4.021,5.591q1.264-.421,2.489-.843a8.158,8.158,0,0,0-1.3-.728q-.728-.345-1.417-.651a1.491,1.491,0,0,0-1.149,0,1.749,1.749,0,0,0-.766.843,9.089,9.089,0,0,0-.23,1.149q-.077.537-.115,1.111Q212.44,426.077,213.666,425.656Zm7.621,5.247,9.037-2.566a2.387,2.387,0,0,1,1.341-.23,2.882,2.882,0,0,1,1.3.46l.689.574,1.072-1.876a46.642,46.642,0,0,0-19.837,3.255,5.1,5.1,0,0,1-1.187.229,4.939,4.939,0,0,1-1.226-.077l-1.149-.23a9.324,9.324,0,0,0,.383,1.57q.229.728.574,1.532Zm9.191,12.025a1.975,1.975,0,0,1,.076.766,1.923,1.923,0,0,1-.192.651,7.293,7.293,0,0,0-.536.8,8.814,8.814,0,0,0-.268.881,2.159,2.159,0,0,0,.229,1.877,2.457,2.457,0,0,0,1.532,1.187,5.579,5.579,0,0,0,2.68.115,6.535,6.535,0,0,0,2.527-1.072q-.306-1.685-.727-3.332-.383-1.724-.8-3.37l-.728-.115q-1.072-.038-2.144,0-1.112.039-2.145.153Z" transform="translate(-204.663 -418.21)" fill="#df1f1c"/>
      <path id="パス_15" data-name="パス 15" d="M317.689,424.561q4.94-1.838,10.034-3.179a1.4,1.4,0,0,0,.651-.306,2.44,2.44,0,0,0,.46-.421,1.386,1.386,0,0,1,.574-.5,2.519,2.519,0,0,1,.728-.268,2.868,2.868,0,0,1,1.149-.076,2.506,2.506,0,0,1,1.111.383,15.82,15.82,0,0,1,6.893,8.233,4.8,4.8,0,0,1,.307,1.187,4.6,4.6,0,0,1,.077,1.187,1.892,1.892,0,0,1-.651,1.3,1.928,1.928,0,0,1-1.379.613,5.252,5.252,0,0,1-1.417-.192,4.565,4.565,0,0,1-1.379-.421,1.447,1.447,0,0,0-.651-.153,1.029,1.029,0,0,0-.613.192q-1.915.651-3.791,1.3-1.915.69-3.791,1.456a5.376,5.376,0,0,1,1.3.957,11.891,11.891,0,0,1,1.033,1.264,10.71,10.71,0,0,1,.766,1.647,6.349,6.349,0,0,1,.421,1.761,47.273,47.273,0,0,1,.306,6.587,43.378,43.378,0,0,1-.651,6.51,7.948,7.948,0,0,1-.268.919,7.454,7.454,0,0,1-.5.728,3.991,3.991,0,0,1-.958.766,3.876,3.876,0,0,1-1.149.459,7.407,7.407,0,0,1-1.876.23,8.233,8.233,0,0,1-1.876-.306q-2.146-.613-4.289-1.379-2.183-.728-4.251-1.57a46.8,46.8,0,0,1-4.787-2.106q-2.336-1.186-4.6-2.527l.842-.077a1.626,1.626,0,0,1,.383.038l.383.077a33.314,33.314,0,0,0,6.587,2.221,30.715,30.715,0,0,0,6.854.689,34.006,34.006,0,0,0,1.072-5.974,40.431,40.431,0,0,0,.154-6.089,2.154,2.154,0,0,0-.115-.689,2.781,2.781,0,0,0-.344-.536,1.954,1.954,0,0,1-.383-.421,2.179,2.179,0,0,1-.23-.613l-.881.344a2.237,2.237,0,0,1-.842.153,2.781,2.781,0,0,1-.8-.115,8,8,0,0,1-1.263-.574,9.97,9.97,0,0,1-1.111-.689.452.452,0,0,1-.23-.268.426.426,0,0,1-.038-.306.614.614,0,0,1,.153-.345,2,2,0,0,1,.307-.191,3.791,3.791,0,0,0,.574-.192q.306-.153.574-.307,2.6-1.493,5.055-3.063,2.489-1.609,4.864-3.294l-6.434,2.106-6.357,2.145a6.245,6.245,0,0,1-1.915.307,5.378,5.378,0,0,1-1.877-.268,11.25,11.25,0,0,1-2.221-1.11,6.7,6.7,0,0,1-1.915-1.685.864.864,0,0,1-.23-.536,1.389,1.389,0,0,1,.077-.651,1.105,1.105,0,0,1,.421-.421,1.138,1.138,0,0,1,.574-.154l1.646.192Q312.748,426.36,317.689,424.561Z" transform="translate(-263.88 -419.144)" fill="#df1f1c"/>
    </g>
    <circle id="楕円形_10" data-name="楕円形 10" cx="72.687" cy="72.687" r="72.687" transform="translate(119.325 184.817)" fill="none" stroke="#df1f1c" stroke-miterlimit="10" stroke-width="11"/>
  </g>
</svg>
