<?xml version="1.0" encoding="utf-8"?>
<!-- Generator: Adobe Illustrator 16.0.0, SVG Export Plug-In . SVG Version: 6.00 Build 0)  -->
<!DOCTYPE svg PUBLIC "-//W3C//DTD SVG 1.1//EN" "http://www.w3.org/Graphics/SVG/1.1/DTD/svg11.dtd">
<svg version="1.1" id="レイヤー_1" xmlns="http://www.w3.org/2000/svg" xmlns:xlink="http://www.w3.org/1999/xlink" x="0px"
	 y="0px" viewBox="0 0 200 200.002" enable-background="new 0 0 200 200.002"
	 xml:space="preserve" width="200" height="200.002">
<path fill="#333333" d="M160,0H40C18,0,0,18,0,40v120.002c0,22,18,40,40,40h120c22,0,40-18,40-40V40C200,18,182,0,160,0z"/>
<g>
	<path fill="#FFFFFF" d="M146.441,22.596H53.559c-17.029,0-30.963,13.933-30.963,30.961v92.884
		c0,17.029,13.934,30.963,30.963,30.963h92.883c17.029,0,30.963-13.934,30.963-30.963V53.558
		C177.404,36.529,163.471,22.596,146.441,22.596z M161.924,146.441c0,8.516-6.967,15.482-15.482,15.482H53.559
		c-8.516,0-15.482-6.967-15.482-15.482V53.558c0-8.514,6.967-15.48,15.482-15.48h92.883c8.516,0,15.482,6.966,15.482,15.48V146.441z
		"/>
	<g>
		<path fill="#FFFFFF" d="M62.717,69.993c0,0-0.107-0.238-0.254-0.671c-0.129-0.43-0.373-1.074-0.561-1.873
			c-0.205-0.803-0.4-1.77-0.561-2.871c-0.156-1.104-0.266-2.338-0.307-3.68c-0.031-1.34,0.01-2.784,0.16-4.305
			c0.162-1.517,0.416-3.117,0.84-4.766c0.184-0.834,0.465-1.663,0.748-2.516c0.154-0.43,0.297-0.857,0.467-1.297
			c0.178-0.428,0.371-0.862,0.574-1.301c0.801-1.774,1.85-3.56,3.516-5.52c0.893-0.953,1.953-1.975,3.563-2.945
			c0.391-0.237,0.881-0.478,1.328-0.685c0.512-0.204,1.039-0.391,1.602-0.538c1.164-0.288,2.471-0.436,3.768-0.286
			c1.299,0.121,2.5,0.506,3.494,0.994c0.982,0.497,1.773,1.075,2.408,1.638c1.254,1.128,2.057,2.227,2.619,3.242
			c0.303,0.514,0.516,0.986,0.76,1.472c0.203,0.459,0.387,0.931,0.541,1.386c0.137,0.444,0.271,0.884,0.406,1.318
			c0.111,0.422,0.217,0.839,0.299,1.257c0.318,1.638,0.463,3.151,0.475,4.532c0.014,1.386-0.07,2.641-0.217,3.757
			c-0.135,1.115-0.344,2.085-0.533,2.89c-0.186,0.798-0.43,1.444-0.555,1.872c-0.141,0.432-0.244,0.667-0.244,0.667l-0.805,0.2
			c0,0-0.227-0.779-0.623-2.141c-0.217-0.675-0.455-1.502-0.775-2.436c-0.309-0.935-0.676-1.983-1.09-3.117
			c-0.408-1.136-0.908-2.341-1.482-3.583c-0.586-1.234-1.27-2.509-2.125-3.66c-0.842-1.127-1.961-2.197-3.178-2.267
			c-1.207-0.119-2.463,0.832-3.451,1.958c-1.012,1.138-1.867,2.48-2.623,3.848c-0.756,1.372-1.418,2.779-2.012,4.164
			c-1.188,2.771-2.178,5.425-2.947,7.726c-0.768,2.303-1.4,4.229-1.801,5.591c-0.408,1.359-0.617,2.139-0.617,2.139L62.717,69.993z"
			/>
		<path fill="#FFFFFF" d="M71.797,142.957c1.01,0.004,2.291,0.264,2.924,1.273c0.746,1.195,0.156,4.725-0.416,8.459
			c-0.258,1.912-0.678,4.996-3.16,5.494c-2.387,0.48-7.107-0.605-8.371-2.625c-2.527-4.041,0.252-40.867,0.225-45.203
			c-3.246-0.898-6.367-2.131-8.148-4.977c-3.332-5.328,6.842-10.166,10.27-12.199l3.732-22.463
			c-17.217,3.775-24.428,12.432-27.408,13.031c-0.598,0.119-1.648,0.228-2.166-0.599c-1.377-2.204-0.037-10.435,0.287-12.774
			c0.354-2.656,2.875-3.99,5.197-5.285c7.209-4.035,15.775-6.792,24.719-8.592c24.643-4.958,36.094,1.008,43.217,12.396
			c12.236,19.56-4.881,38.513-38.746,41.604L71.797,142.957z M76.236,90.188c3.676-0.74,6.945-2.846,8.037-1.102
			c1.148,1.836-7.01,3.996-7.967,5.326l-0.291,3.471c4.25,0.178,7.744-0.318,10.811-1.143c18.844-4.928,23.445-20.638,18.734-26.203
			c-4.598-5.382-23.969-2.726-28.539-1.806c1.451,2.499,1.602,3.813,1.318,6.042L76.236,90.188z"/>
		<path fill="#FFFFFF" d="M131.861,132.326c-3.471,7.197-11.027,16.723-21.063,16.723c-7.398,0-13.328-6.588-16.051-13.275
			c-5.41-13.277,4.166-26.859,17.381-26.758c3.242,0,7.604,0.811,9.131,4.863c1.873,4.967-0.268,12.469-17.32,18.854l0.637,2.229
			c1.148,3.852,4.99,5.17,8.232,5.17c7.197,0,12.922-7.398,16.689-11.656L131.861,132.326z M113.143,116.008
			c-0.268-0.709-1.004-1.316-1.637-1.115c-4.57,1.318-8.615,6.182-8.83,12.873C110.447,124.725,113.893,117.732,113.143,116.008z"/>
		<path fill="#FFFFFF" d="M155.373,95.754c-1.137,9.629-0.531,13.381-11.949,12.67c-1.766,4.459-4.408,22.18-2.117,28.26
			c0.84,2.232,2.047,3.549,4.377,3.549c3.244,0,17.699-8.7,25.412-16.2l6.309,5c-3.918,5.473-26.848,21.437-35.463,21.437
			c-3.951,0-7.416-2.736-8.945-6.789c-1.26-3.346-1.395-7.197-1.186-10.137l-0.277-0.203l-3.604,4.156l-2.566-3.852
			c4.322-4.662,7.949-19.24,9.293-25.625c-6.182,0-4.41-0.406-9.477,0.404l0.428-1.824c2.111-8.918,2.309-10.541,13.002-10.945
			c1.475-4.156,1.908-8.92,7.787-8.92c1.318,0,3.357,0.303,3.971,1.926c0.686,1.824-0.992,5.168-1.471,6.588L155.373,95.754z"/>
		<path fill="#FCEE21" d="M97.201,83.525c0,0-0.074-0.072-0.186-0.201c-0.1-0.123-0.291-0.318-0.441-0.539
			c-0.164-0.224-0.383-0.502-0.561-0.799c-0.188-0.301-0.365-0.627-0.529-0.975c-0.322-0.694-0.564-1.462-0.645-2.228
			c-0.088-0.769-0.006-1.534,0.213-2.255c0.227-0.719,0.596-1.394,1.104-1.975c0.502-0.584,1.139-1.075,1.801-1.461
			c0.334-0.191,0.67-0.357,0.996-0.496c0.316-0.141,0.654-0.244,0.92-0.334c0.25-0.094,0.52-0.146,0.672-0.19
			c0.166-0.04,0.27-0.058,0.27-0.058s0.074,0.072,0.186,0.201c0.102,0.123,0.295,0.32,0.447,0.541
			c0.166,0.225,0.383,0.502,0.563,0.801c0.188,0.299,0.367,0.627,0.533,0.975c0.324,0.695,0.564,1.462,0.643,2.228
			c0.086,0.769,0.002,1.532-0.223,2.251c-0.232,0.719-0.604,1.393-1.113,1.973c-0.506,0.582-1.143,1.074-1.803,1.459
			c-0.332,0.191-0.666,0.358-0.992,0.498c-0.316,0.141-0.652,0.245-0.916,0.335c-0.25,0.095-0.52,0.146-0.672,0.19
			C97.305,83.509,97.201,83.525,97.201,83.525z"/>
		<path fill="#FCEE21" d="M82.549,83.844c0,0-0.074-0.072-0.188-0.201c-0.098-0.123-0.289-0.319-0.441-0.539
			c-0.162-0.224-0.381-0.502-0.559-0.799c-0.188-0.301-0.367-0.629-0.531-0.975c-0.32-0.695-0.563-1.462-0.645-2.229
			c-0.086-0.769-0.006-1.533,0.213-2.254c0.229-0.72,0.596-1.395,1.105-1.977c0.502-0.582,1.137-1.074,1.801-1.459
			c0.334-0.191,0.668-0.357,0.994-0.496c0.318-0.141,0.656-0.244,0.92-0.334c0.252-0.094,0.521-0.146,0.674-0.19
			c0.166-0.04,0.268-0.058,0.268-0.058s0.076,0.072,0.188,0.201c0.102,0.123,0.293,0.318,0.445,0.541
			c0.166,0.225,0.385,0.502,0.564,0.801c0.188,0.299,0.367,0.627,0.533,0.975c0.322,0.694,0.564,1.461,0.643,2.228
			c0.086,0.769,0.002,1.532-0.223,2.251c-0.232,0.719-0.604,1.393-1.113,1.973c-0.506,0.582-1.143,1.074-1.803,1.459
			c-0.334,0.191-0.668,0.358-0.992,0.498c-0.316,0.141-0.654,0.245-0.916,0.335c-0.25,0.095-0.52,0.146-0.672,0.19
			C82.65,83.826,82.549,83.844,82.549,83.844z"/>
		<path fill="#FFFFFF" d="M113.959,77.619c0,0,0.184-0.188,0.471-0.541c0.271-0.358,0.723-0.879,1.176-1.563
			c0.473-0.682,0.988-1.521,1.521-2.5c0.531-0.978,1.063-2.099,1.568-3.343c0.494-1.245,0.957-2.613,1.342-4.093
			c0.375-1.479,0.693-3.068,0.867-4.76c0.119-0.846,0.141-1.721,0.172-2.619c0.004-0.457,0.021-0.906,0.014-1.378
			c-0.02-0.462-0.049-0.937-0.088-1.419c-0.133-1.941-0.498-3.98-1.379-6.396c-0.508-1.204-1.146-2.531-2.318-3.999
			c-0.285-0.358-0.66-0.754-1.01-1.104c-0.408-0.369-0.836-0.727-1.313-1.061c-0.992-0.675-2.166-1.267-3.436-1.576
			c-1.26-0.338-2.52-0.393-3.621-0.282c-1.096,0.125-2.037,0.393-2.828,0.701c-1.568,0.623-2.701,1.374-3.582,2.131
			c-0.461,0.376-0.824,0.745-1.223,1.116c-0.35,0.36-0.686,0.739-0.988,1.112c-0.283,0.369-0.563,0.734-0.84,1.095
			c-0.252,0.357-0.494,0.711-0.715,1.075c-0.867,1.425-1.527,2.795-2.02,4.085c-0.494,1.295-0.852,2.502-1.1,3.6
			c-0.264,1.092-0.404,2.075-0.504,2.894c-0.105,0.813-0.1,1.503-0.131,1.948c-0.018,0.455-0.002,0.711-0.002,0.711l0.686,0.466
			c0,0,0.482-0.651,1.328-1.791c0.436-0.557,0.945-1.252,1.57-2.015c0.615-0.771,1.324-1.625,2.104-2.545
			c0.779-0.923,1.666-1.88,2.637-2.847c0.977-0.954,2.061-1.912,3.264-2.694c1.18-0.764,2.602-1.379,3.768-1.023
			c1.174,0.309,2.021,1.636,2.557,3.033c0.555,1.42,0.889,2.975,1.123,4.521c0.234,1.548,0.365,3.098,0.441,4.602
			c0.15,3.011,0.158,5.844,0.08,8.27s-0.152,4.453-0.252,5.869c-0.088,1.415-0.162,2.219-0.162,2.219L113.959,77.619z"/>
	</g>
</g>
</svg>
