<?xml version="1.0" encoding="utf-8"?>
<!-- Generator: Adobe Illustrator 16.0.0, SVG Export Plug-In . SVG Version: 6.00 Build 0)  -->
<!DOCTYPE svg PUBLIC "-//W3C//DTD SVG 1.1//EN" "http://www.w3.org/Graphics/SVG/1.1/DTD/svg11.dtd">
<svg version="1.1" id="レイヤー_1" xmlns="http://www.w3.org/2000/svg" xmlns:xlink="http://www.w3.org/1999/xlink" x="0px"
	 y="0px" viewBox="0 0 200 200" enable-background="new 0 0 200 200" xml:space="preserve" width="200" height="200">
<path fill="#808080" d="M179.899,160.138C192.517,143.4,200,122.575,200,100C200,44.771,155.229,0,100,0S0,44.771,0,100
	s44.771,100,100,100c22.575,0,43.4-7.483,60.138-20.101L200,200L179.899,160.138z"/>
<g>
	<g>
		<path fill="#FFFFFF" d="M141.927,133.02c0,4.899-4.008,8.907-8.907,8.907H51.422c-4.899,0-8.907-4.008-8.907-8.907V51.422
			c0-4.899,4.008-8.907,8.907-8.907h81.598c4.899,0,8.907,4.008,8.907,8.907V133.02z"/>
	</g>
	<g>
		<path fill="none" stroke="#FFFFFF" stroke-width="5.799" stroke-miterlimit="10" d="M157.485,148.578
			c0,4.899-4.008,8.907-8.907,8.907H66.98c-4.899,0-8.907-4.008-8.907-8.907V66.98c0-4.899,4.008-8.907,8.907-8.907h81.598
			c4.899,0,8.907,4.008,8.907,8.907V148.578z"/>
	</g>
</g>
<g>
	
		<line fill="none" stroke="#808080" stroke-width="8.6696" stroke-miterlimit="10" x1="92.221" y1="115.186" x2="92.221" y2="69.256"/>
	
		<line fill="none" stroke="#808080" stroke-width="8.6696" stroke-miterlimit="10" x1="69.256" y1="92.221" x2="115.186" y2="92.221"/>
</g>
</svg>
