<?xml version="1.0" encoding="utf-8"?>
<!-- Generator: Adobe Illustrator 16.0.0, SVG Export Plug-In . SVG Version: 6.00 Build 0)  -->
<!DOCTYPE svg PUBLIC "-//W3C//DTD SVG 1.1//EN" "http://www.w3.org/Graphics/SVG/1.1/DTD/svg11.dtd">
<svg version="1.1" id="レイヤー_1" xmlns="http://www.w3.org/2000/svg" xmlns:xlink="http://www.w3.org/1999/xlink" x="0px"
	 y="0px" viewBox="0 0 200 200" enable-background="new 0 0 200 200" xml:space="preserve" width="200" height="200">
<path fill="#808080" d="M39.862,179.899C56.6,192.517,77.425,200,100,200c55.229,0,100-44.771,100-100S155.229,0,100,0
	S0,44.771,0,100c0,22.575,7.483,43.4,20.101,60.138L0,200L39.862,179.899z"/>
<g>
	
		<line fill="none" stroke="#808080" stroke-width="8.6696" stroke-miterlimit="10" x1="92.221" y1="115.186" x2="92.221" y2="69.256"/>
	
		<line fill="none" stroke="#808080" stroke-width="8.6696" stroke-miterlimit="10" x1="69.256" y1="92.221" x2="115.186" y2="92.221"/>
</g>
<path fill="#FFFFFF" d="M134.706,104.769H65.294c-8.25,0-15,6.75-15,15v49.37c13.99,10.076,31.148,16.026,49.706,16.026
	s35.716-5.954,49.706-16.031v-49.365C149.706,111.519,142.956,104.769,134.706,104.769z"/>
<circle fill="#FFFFFF" cx="100" cy="61.272" r="35.082"/>
</svg>
