<svg xmlns="http://www.w3.org/2000/svg" width="51.429" height="18" viewBox="0 0 51.429 18">
  <g id="グループ_7" data-name="グループ 7" transform="translate(-238 -60)">
    <g id="グループ_3" data-name="グループ 3" transform="translate(238 69)">
      <ellipse id="楕円形_4" data-name="楕円形 4" cx="1.36" cy="1.36" rx="1.36" ry="1.36" transform="translate(8.673 0.005)" fill="#707070"/>
      <ellipse id="楕円形_5" data-name="楕円形 5" cx="1.36" cy="1.36" rx="1.36" ry="1.36" transform="translate(10.138 3.143)" fill="#707070"/>
      <ellipse id="楕円形_6" data-name="楕円形 6" cx="1.36" cy="1.36" rx="1.36" ry="1.36" transform="translate(8.673 6.281)" fill="#707070"/>
      <ellipse id="楕円形_3" data-name="楕円形 3" cx="4.337" cy="4.497" rx="4.337" ry="4.497" transform="translate(0 0)" fill="#707070"/>
    </g>
    <g id="グループ_6" data-name="グループ 6" transform="translate(263.714 69)">
      <ellipse id="楕円形_4-2" data-name="楕円形 4" cx="1.36" cy="1.36" rx="1.36" ry="1.36" transform="translate(8.673 0.005)" fill="#707070"/>
      <ellipse id="楕円形_5-2" data-name="楕円形 5" cx="1.36" cy="1.36" rx="1.36" ry="1.36" transform="translate(10.138 3.143)" fill="#707070"/>
      <ellipse id="楕円形_6-2" data-name="楕円形 6" cx="1.36" cy="1.36" rx="1.36" ry="1.36" transform="translate(8.673 6.281)" fill="#707070"/>
      <ellipse id="楕円形_3-2" data-name="楕円形 3" cx="4.337" cy="4.497" rx="4.337" ry="4.497" transform="translate(0 0)" fill="#707070"/>
    </g>
    <g id="グループ_4" data-name="グループ 4" transform="translate(250.857 60)">
      <ellipse id="楕円形_4-3" data-name="楕円形 4" cx="1.36" cy="1.36" rx="1.36" ry="1.36" transform="translate(8.673 0.005)" fill="#707070"/>
      <ellipse id="楕円形_5-3" data-name="楕円形 5" cx="1.36" cy="1.36" rx="1.36" ry="1.36" transform="translate(10.138 3.143)" fill="#707070"/>
      <ellipse id="楕円形_6-3" data-name="楕円形 6" cx="1.36" cy="1.36" rx="1.36" ry="1.36" transform="translate(8.673 6.281)" fill="#707070"/>
      <ellipse id="楕円形_3-3" data-name="楕円形 3" cx="4.337" cy="4.497" rx="4.337" ry="4.497" transform="translate(0 0)" fill="#707070"/>
    </g>
    <g id="グループ_5" data-name="グループ 5" transform="translate(276.572 60)">
      <ellipse id="楕円形_4-4" data-name="楕円形 4" cx="1.36" cy="1.36" rx="1.36" ry="1.36" transform="translate(8.673 0.005)" fill="#707070"/>
      <ellipse id="楕円形_5-4" data-name="楕円形 5" cx="1.36" cy="1.36" rx="1.36" ry="1.36" transform="translate(10.138 3.143)" fill="#707070"/>
      <ellipse id="楕円形_6-4" data-name="楕円形 6" cx="1.36" cy="1.36" rx="1.36" ry="1.36" transform="translate(8.673 6.281)" fill="#707070"/>
      <ellipse id="楕円形_3-4" data-name="楕円形 3" cx="4.337" cy="4.497" rx="4.337" ry="4.497" transform="translate(0 0)" fill="#707070"/>
    </g>
  </g>
</svg>
