<?xml version="1.0" encoding="utf-8"?>
<!-- Generator: Adobe Illustrator 16.0.0, SVG Export Plug-In . SVG Version: 6.00 Build 0)  -->
<!DOCTYPE svg PUBLIC "-//W3C//DTD SVG 1.1//EN" "http://www.w3.org/Graphics/SVG/1.1/DTD/svg11.dtd">
<svg version="1.1" id="レイヤー_1" xmlns="http://www.w3.org/2000/svg" xmlns:xlink="http://www.w3.org/1999/xlink" x="0px"
	 y="0px" viewBox="0 0 468.739 198.6" enable-background="new 0 0 468.739 198.6"
	 xml:space="preserve" width="468.739" height="198.6">
<g>
	<path d="M34.992,48.471c0,0-0.155-0.347-0.368-0.977c-0.189-0.625-0.544-1.563-0.816-2.725c-0.298-1.168-0.581-2.574-0.814-4.18
		c-0.229-1.604-0.389-3.4-0.448-5.354c-0.046-1.948,0.016-4.049,0.234-6.263c0.235-2.207,0.604-4.536,1.223-6.935
		c0.266-1.213,0.676-2.42,1.089-3.66c0.224-0.625,0.43-1.247,0.678-1.887c0.259-0.623,0.54-1.254,0.837-1.893
		c1.162-2.582,2.689-5.18,5.112-8.031c1.301-1.387,2.844-2.875,5.185-4.285c0.568-0.346,1.28-0.696,1.933-0.998
		c0.744-0.297,1.513-0.567,2.33-0.783c1.694-0.418,3.596-0.634,5.481-0.415c1.892,0.175,3.638,0.737,5.086,1.446
		c1.429,0.723,2.58,1.563,3.503,2.383c1.825,1.642,2.994,3.24,3.812,4.717c0.44,0.749,0.748,1.436,1.105,2.143
		c0.294,0.667,0.563,1.354,0.788,2.016c0.198,0.646,0.396,1.286,0.591,1.918c0.163,0.613,0.315,1.221,0.433,1.828
		c0.465,2.383,0.674,4.586,0.692,6.595c0.021,2.017-0.103,3.843-0.315,5.467c-0.195,1.622-0.499,3.034-0.776,4.204
		c-0.269,1.162-0.625,2.102-0.807,2.724c-0.206,0.628-0.355,0.97-0.355,0.97l-1.171,0.291c0,0-0.33-1.133-0.908-3.114
		c-0.314-0.981-0.659-2.187-1.125-3.544c-0.45-1.361-0.985-2.885-1.586-4.535c-0.596-1.653-1.323-3.406-2.158-5.215
		c-0.852-1.795-1.848-3.65-3.091-5.325c-1.227-1.64-2.855-3.197-4.626-3.298c-1.757-0.174-3.582,1.209-5.021,2.848
		c-1.474,1.656-2.718,3.609-3.816,5.599c-1.101,1.995-2.063,4.043-2.928,6.059c-1.728,4.03-3.168,7.894-4.287,11.241
		c-1.118,3.352-2.04,6.154-2.621,8.135c-0.594,1.978-0.898,3.112-0.898,3.112L34.992,48.471z"/>
	<g>
		<path d="M48.206,154.637c1.468,0.004,3.332,0.381,4.252,1.852c1.085,1.736,0.229,6.873-0.604,12.307
			c-0.376,2.781-0.986,7.27-4.601,7.996c-3.47,0.699-10.34-0.881-12.179-3.82c-3.678-5.881,0.366-59.463,0.326-65.771
			c-4.724-1.307-9.265-3.102-11.855-7.242c-4.849-7.75,9.954-14.789,14.94-17.748l5.434-32.685
			C18.869,55.016,8.375,67.61,4.039,68.483c-0.868,0.174-2.397,0.33-3.15-0.871c-2.005-3.207-0.057-15.183,0.418-18.587
			c0.513-3.863,4.182-5.805,7.561-7.689c10.489-5.871,22.954-9.883,35.966-12.501c35.855-7.214,52.519,1.468,62.884,18.035
			c17.804,28.459-7.103,56.036-56.377,60.534L48.206,154.637z M54.663,77.853c5.35-1.076,10.107-4.141,11.695-1.602
			C68.03,78.923,56.159,82.066,54.767,84l-0.423,5.051c6.185,0.258,11.269-0.463,15.728-1.662
			c27.418-7.17,34.114-30.029,27.259-38.127c-6.689-7.83-34.873-3.966-41.524-2.627c2.113,3.637,2.332,5.548,1.919,8.79
			L54.663,77.853z"/>
		<path d="M135.6,139.166c-5.049,10.473-16.045,24.334-30.646,24.334c-10.766,0-19.393-9.586-23.356-19.318
			c-7.872-19.318,6.063-39.08,25.29-38.934c4.719,0,11.063,1.18,13.286,7.078c2.725,7.227-0.388,18.141-25.201,27.432l0.928,3.244
			c1.669,5.604,7.26,7.521,11.979,7.521c10.472,0,18.801-10.766,24.282-16.961L135.6,139.166z M108.363,115.424
			c-0.389-1.033-1.46-1.918-2.382-1.623c-6.65,1.918-12.536,8.996-12.848,18.73C104.443,128.105,109.456,117.932,108.363,115.424z"
			/>
		<path d="M169.81,85.953c-1.652,14.012-0.773,19.469-17.387,18.436c-2.567,6.488-6.415,32.271-3.08,41.119
			c1.224,3.246,2.978,5.162,6.369,5.162c4.721,0,8.362-4.424,19.585-15.338l3.184,6.49c-5.699,7.963-15.677,23.744-28.213,23.744
			c-5.751,0-10.792-3.982-13.016-9.881c-1.834-4.867-2.03-10.473-1.725-14.748l-0.406-0.295l-5.242,6.047l-3.734-5.605
			c6.291-6.783,11.566-27.994,13.522-37.285c-8.996,0-6.418-0.59-13.789,0.59l0.622-2.654c3.071-12.979,3.36-15.338,18.919-15.928
			c2.145-6.048,2.777-12.979,11.331-12.979c1.917,0,4.886,0.443,5.776,2.803c0.999,2.654-1.442,7.522-2.14,9.587L169.81,85.953z"/>
		<path d="M216.191,139.758l-0.407-0.295c-3.085,5.898-13.512,19.318-21.621,19.318c-8.258,0-15.119-10.766-17.565-17.254
			c-7.283-19.32,18.976-34.953,29.941-35.984c2.01-0.148,7.981,0.443,9.205,3.688c1,2.654-1.17,4.719-2.587,6.045l-13.365,9.145
			c-7.401,5.014-16.758,9.143-11.373,19.908c0.593,1.18,1.59,1.477,2.916,1.477c4.296,0.441,11.958-3.098,15.283-9.145l9.22-17.402
			c0.864-1.623,1.687-4.129,4.048-4.129c2.948,0,7.495,5.014,8.439,7.521c0.834,2.213,0.048,5.604-0.263,7.52l-3.276,20.648
			l0.404,0.293l9.435-10.174l3.034,6.488l-15.374,17.107c-6.2,24.629-15.62,34.066-21.37,34.066c-2.066,0-4.005-1.623-4.728-3.539
			c-4.002-10.617,11.408-29.201,17.296-35.1L216.191,139.758z"/>
		<path d="M248.465,129.139c-2.104,8.111-6.854,11.945-10.806,18.287l-3.034-6.488c2.666-3.098,4.373-6.785,5.674-10.768
			c-3.208-0.293-4.538-1.473-5.706-4.57c-4.002-10.617,7.039-21.236,10.578-21.236c1.475,0,3.101,1.18,3.6,2.506
			c0.556,1.475,0.613,2.803,0.523,4.131c13.141-1.918,20.584-3.688,22.728-1.918c3.267,2.803,5.189,5.162,6.485,7.816
			c1.723,4.57-0.244,6.783-2.58,9.586c-2.888,3.686-7.392,10.912-5.168,16.813c0.89,2.359,3.917,4.129,6.131,4.129
			c6.34,0,12.018-9.586,15.495-13.273l3.09,5.457c-3.214,6.342-14.005,22.711-22.41,22.711c-6.194,0-12.196-5.75-14.309-11.355
			c-3.779-10.027,0.942-17.844,4.172-24.924l-0.405-0.295L248.465,129.139z"/>
		<path d="M321.78,151.111c-1.969,2.213-8.518,9.881-11.909,9.881c-4.129,0-16.351-9.732-19.537-17.4
			c-7.537-18.436,23.689-37.313,40.63-37.754c6.728-0.148,11.587,5.309,12.254,7.078c0.666,1.77-2.61,3.244-3.771,3.688
			c3.246,1.18,5.333,2.801,6.557,6.047c1.778,4.719-7.161,15.043-4.549,21.973c0.945,2.508,3.546,3.539,5.907,3.539
			c6.192,0,11.766-7.52,16.494-11.797l3.235,5.457c-3.616,7.225-17.431,23.006-24.655,23.006c-4.868,0-8.414-3.539-10.025-7.816
			c-1.778-4.719-1.188-12.535-0.77-16.518l-0.407-0.295L321.78,151.111z M302.489,147.277c0.427,0.738,2.017,3.393,4.063,2.949
			c2.729-0.588,7.466-0.146,25.548-29.641l-0.407-0.297C300.651,131.057,299.767,140.053,302.489,147.277z"/>
		<path d="M419.853,152.293c-2.171,3.244-5.201,9.291-10.215,9.291c-3.539,0-7.343-2.656-8.823-6.195
			c-1.761-4.277-0.777-11.061,3.304-25.66c0.185-0.295,0.33-1.475,0.163-1.916c-0.223-0.592-0.831-1.033-1.421-1.033
			c-1.476,0-3.385,3.539-4.03,4.57c-4.61,8.113-9.532,16.961-13.239,25.514c-0.899,1.918-2.132,4.129-4.787,4.129
			c-7.077,0-13.477-11.502-15.479-16.811c-5.303-14.453,2.882-34.215,12.175-33.035c2.323,0.295,6.747,0.295,7.915,3.393
			c1.112,2.949-1.35,7.373-2.34,9.438c-1.489,3.098-3.732,5.752-4.72,8.996c-0.791,2.213-2.555,4.572-1.387,7.67
			c0.111,0.295,0.94,1.326,1.532,1.326c0.737,0,1.785-1.916,2.059-2.359c4.393-7.521,20.748-33.771,30.334-33.771
			c3.981,0,7.159,2.949,8.603,6.783c2.447,6.49-3.522,18.436-4.598,24.188l0.407,0.293l23.01-25.807
			c1.03-1.18,3.606-4.129,5.376-4.129c1.179,0,3.987,3.539,4.651,4.129c1.646,1.621,4.102,3.834,4.879,5.898
			c0.945,2.508-0.781,5.752-1.735,7.521c-6.724,12.682-6.717,15.043-5.588,18.434c0.521,1.77,3.327,4.129,4.931,3.688
			c2.819-0.738,4.441-0.738,17.91-13.125c0,0-4.667,29.789-24.313,29.789c-4.423,0-9.133-4.277-10.746-8.553
			c-2.779-7.373,0.502-17.846,1.907-23.891l-0.405-0.295L419.853,152.293z"/>
		<path d="M85.168,68.159c0,0-0.108-0.105-0.27-0.291c-0.144-0.18-0.423-0.465-0.643-0.785c-0.238-0.326-0.555-0.73-0.814-1.164
			c-0.272-0.436-0.533-0.912-0.771-1.418c-0.468-1.01-0.819-2.127-0.937-3.24c-0.128-1.118-0.009-2.231,0.309-3.28
			c0.331-1.047,0.866-2.028,1.607-2.874c0.731-0.849,1.656-1.563,2.619-2.124c0.487-0.278,0.975-0.521,1.448-0.723
			c0.463-0.205,0.953-0.355,1.339-0.486c0.366-0.137,0.759-0.211,0.981-0.276c0.24-0.06,0.39-0.084,0.39-0.084
			s0.109,0.106,0.272,0.292c0.146,0.18,0.425,0.466,0.647,0.787c0.242,0.328,0.558,0.732,0.82,1.165
			c0.274,0.437,0.535,0.913,0.776,1.421c0.47,1.01,0.82,2.125,0.935,3.239c0.125,1.117,0.003,2.229-0.323,3.275
			c-0.339,1.043-0.877,2.025-1.622,2.869c-0.734,0.848-1.661,1.563-2.621,2.123c-0.485,0.279-0.972,0.521-1.444,0.725
			c-0.46,0.205-0.951,0.357-1.333,0.488c-0.364,0.137-0.756,0.211-0.977,0.277C85.317,68.136,85.168,68.159,85.168,68.159z"/>
		<path d="M63.848,68.622c0,0-0.108-0.105-0.27-0.291c-0.144-0.18-0.423-0.465-0.643-0.785c-0.238-0.326-0.555-0.73-0.814-1.164
			c-0.272-0.436-0.533-0.912-0.771-1.418c-0.468-1.01-0.819-2.127-0.937-3.24c-0.128-1.118-0.009-2.231,0.309-3.28
			c0.331-1.047,0.866-2.028,1.607-2.874c0.731-0.849,1.656-1.563,2.619-2.124c0.487-0.278,0.975-0.521,1.448-0.723
			c0.463-0.205,0.953-0.355,1.339-0.486c0.366-0.137,0.759-0.211,0.981-0.276c0.24-0.06,0.39-0.084,0.39-0.084
			s0.109,0.106,0.272,0.292c0.146,0.18,0.425,0.466,0.647,0.787c0.242,0.328,0.558,0.732,0.82,1.165
			c0.274,0.437,0.535,0.913,0.776,1.421c0.47,1.01,0.82,2.125,0.935,3.239c0.125,1.117,0.003,2.229-0.323,3.275
			c-0.339,1.043-0.877,2.025-1.622,2.869c-0.734,0.848-1.661,1.563-2.621,2.123c-0.485,0.279-0.972,0.521-1.444,0.725
			c-0.46,0.205-0.951,0.357-1.333,0.488c-0.364,0.137-0.756,0.211-0.977,0.277C63.997,68.599,63.848,68.622,63.848,68.622z"/>
		<path d="M109.552,59.565c0,0,0.267-0.271,0.685-0.787c0.395-0.521,1.053-1.278,1.711-2.272c0.687-0.992,1.438-2.213,2.215-3.637
			c0.772-1.424,1.545-3.055,2.28-4.865c0.719-1.811,1.392-3.803,1.954-5.954c0.546-2.151,1.008-4.464,1.261-6.927
			c0.173-1.23,0.206-2.505,0.249-3.812c0.008-0.663,0.031-1.317,0.021-2.005c-0.027-0.674-0.071-1.363-0.128-2.065
			c-0.193-2.825-0.724-5.792-2.006-9.307c-0.738-1.751-1.669-3.683-3.375-5.819c-0.413-0.52-0.959-1.096-1.466-1.605
			c-0.595-0.537-1.22-1.057-1.912-1.543c-1.444-0.982-3.152-1.844-4.997-2.294c-1.834-0.491-3.668-0.571-5.271-0.409
			c-1.592,0.182-2.962,0.571-4.112,1.02c-2.282,0.906-3.933,1.999-5.213,3.101c-0.673,0.548-1.199,1.084-1.779,1.624
			c-0.509,0.523-0.998,1.075-1.439,1.617c-0.411,0.537-0.817,1.068-1.22,1.594c-0.367,0.519-0.72,1.034-1.041,1.563
			c-1.263,2.073-2.224,4.066-2.938,5.944c-0.72,1.884-1.238,3.64-1.602,5.236c-0.381,1.589-0.587,3.02-0.732,4.211
			c-0.152,1.184-0.144,2.188-0.189,2.835c-0.024,0.661-0.004,1.034-0.004,1.034l0.998,0.678c0,0,0.703-0.947,1.934-2.605
			c0.635-0.811,1.376-1.821,2.284-2.932c0.895-1.12,1.927-2.364,3.063-3.703c1.132-1.344,2.423-2.734,3.835-4.141
			c1.422-1.389,2.999-2.783,4.747-3.92c1.719-1.112,3.787-2.008,5.482-1.489c1.709,0.449,2.94,2.38,3.721,4.413
			c0.807,2.066,1.295,4.33,1.635,6.578c0.339,2.252,0.531,4.507,0.643,6.696c0.219,4.381,0.229,8.503,0.117,12.032
			c-0.115,3.53-0.225,6.479-0.367,8.539c-0.129,2.06-0.238,3.23-0.238,3.23L109.552,59.565z"/>
	</g>
</g>
</svg>
